<svg width="185" height="30" viewBox="0 0 185 30" fill="none" xmlns="http://www.w3.org/2000/svg">
    <path d="M42.044 3.91736C41.79 3.47916 41.2269 3.32952 40.787 3.58325L12.1755 20.0757C11.1225 18.5821 10.5038 16.7633 10.5038 14.8005C10.5038 9.7223 14.6406 5.60559 19.7435 5.60559C22.4841 5.60559 24.9459 6.79334 26.6377 8.67953L21.1775 12.1582L39.2558 2.75702C39.7083 2.52189 39.8727 1.95914 39.6172 1.51908C39.3614 1.07809 38.7875 0.939144 38.3565 1.21331L31.4198 5.63254C28.696 2.20218 24.4784 0 19.7435 0C11.5297 0 4.87131 6.62605 4.87131 14.8C4.87131 17.7866 5.76087 20.5659 7.28969 22.8912L0 27.0934L7.47367 23.1645C10.154 27.0507 14.6494 29.6 19.7435 29.6C27.9573 29.6 34.6156 22.9739 34.6156 14.8C34.675 13.47 35.0051 11.5025 36.0025 10.9598L36.9775 10.4291C37.1937 10.3115 37.2703 10.0397 37.147 9.82732C37.0238 9.61496 36.7496 9.54525 36.5391 9.67212L19.9303 19.7053L23.284 17.8804C24.7297 17.208 28.8071 16.5942 28.314 18.2401C26.9454 21.6138 23.6239 23.9944 19.7435 23.9944C16.8124 23.9944 14.2007 22.6361 12.508 20.5176L41.6775 5.18365C42.1384 4.94108 42.3051 4.36672 42.044 3.91736Z" fill="#0F1114"/>
    <path d="M57.8481 22.1208C56.2069 22.1208 54.7931 21.7552 53.6069 21.0239C52.4369 20.2764 51.535 19.277 50.9013 18.0258C50.2675 16.7745 49.9506 15.3852 49.9506 13.8577C49.9506 12.3302 50.2756 10.9408 50.9256 9.68953C51.5756 8.43828 52.4938 7.44703 53.68 6.71578C54.8825 5.96828 56.2881 5.59453 57.8969 5.59453C59.6356 5.59453 61.1388 6.02516 62.4063 6.88641C63.69 7.73141 64.6325 8.82828 65.2338 10.177H63.235C62.7475 9.31578 62.065 8.63328 61.1875 8.12953C60.3263 7.62578 59.2781 7.37391 58.0431 7.37391C56.7431 7.37391 55.6219 7.66641 54.6794 8.25141C53.7369 8.82016 53.0138 9.59203 52.51 10.567C52.0225 11.542 51.7788 12.6389 51.7788 13.8577C51.7788 15.0602 52.0225 16.157 52.51 17.1483C52.9975 18.1233 53.7044 18.9033 54.6306 19.4883C55.5731 20.057 56.6944 20.3414 57.9944 20.3414C58.9694 20.3414 59.8875 20.1302 60.7488 19.7077C61.6263 19.2852 62.3331 18.6758 62.8694 17.8795C63.4219 17.0833 63.6981 16.1245 63.6981 15.0033H57.7994V13.3458H65.38V21.9258H63.6981V19.0739C63.3569 19.5939 62.9181 20.0895 62.3819 20.5608C61.8456 21.0158 61.1956 21.3895 60.4319 21.682C59.6844 21.9745 58.8231 22.1208 57.8481 22.1208ZM68.1991 21.9258V9.73828H70.0272V12.7364C70.0922 12.5252 70.2141 12.2489 70.3929 11.9077C70.5879 11.5502 70.8641 11.1927 71.2216 10.8352C71.5791 10.4777 72.026 10.177 72.5622 9.93328C73.1147 9.67328 73.7647 9.54328 74.5122 9.54328H74.6341V11.3714H74.4147C73.5047 11.3714 72.7166 11.6233 72.0504 12.127C71.4004 12.6145 70.8966 13.2564 70.5391 14.0527C70.1979 14.8327 70.0272 15.6695 70.0272 16.5633V21.9258H68.1991ZM81.4355 22.1208C80.2493 22.1208 79.2093 21.8445 78.3155 21.292C77.438 20.7233 76.7555 19.9595 76.268 19.0008C75.7805 18.042 75.5368 16.9858 75.5368 15.832C75.5368 14.662 75.7805 13.6058 76.268 12.6633C76.7555 11.7045 77.438 10.9489 78.3155 10.3964C79.2093 9.82766 80.2493 9.54328 81.4355 9.54328C82.443 9.54328 83.3043 9.73828 84.0193 10.1283C84.7505 10.5183 85.3436 11.0464 85.7986 11.7127V9.73828H87.6268V21.9258H85.7986V19.9758C85.3436 20.6258 84.7505 21.1458 84.0193 21.5358C83.3043 21.9258 82.443 22.1208 81.4355 22.1208ZM81.6793 20.4633C82.5893 20.4633 83.353 20.252 83.9705 19.8295C84.6043 19.407 85.0836 18.8464 85.4086 18.1477C85.7336 17.4327 85.8961 16.6608 85.8961 15.832C85.8961 14.987 85.7336 14.2152 85.4086 13.5164C85.0836 12.8177 84.6043 12.257 83.9705 11.8345C83.353 11.412 82.5893 11.2008 81.6793 11.2008C80.7855 11.2008 80.0136 11.412 79.3636 11.8345C78.7136 12.257 78.218 12.8177 77.8768 13.5164C77.5355 14.2152 77.3649 14.987 77.3649 15.832C77.3649 16.6608 77.5355 17.4327 77.8768 18.1477C78.218 18.8464 78.7136 19.407 79.3636 19.8295C80.0136 20.252 80.7855 20.4633 81.6793 20.4633ZM94.1038 21.9258L89.3263 9.73828H91.3251L95.1763 19.9758L99.0032 9.73828H101.002L96.2488 21.9258H94.1038ZM102.641 7.69078V5.30203H104.616V7.69078H102.641ZM102.715 21.9258V9.73828H104.543V21.9258H102.715ZM109.03 21.9258V11.347H106.543V9.73828H109.03V5.37516H110.858V9.73828H113.661V11.347H110.858V21.9258H109.03ZM116.931 26.752L119.149 21.7552L114.177 9.73828H116.2L120.124 19.732L124.122 9.73828H126.121L118.906 26.752H116.931Z" fill="#0F1114"/>
    <path d="M141.751 22.1208C140.159 22.1208 138.867 21.9095 137.876 21.487C136.884 21.0483 136.137 20.447 135.633 19.6833C135.146 18.9195 134.861 18.0583 134.78 17.0995H136.681C136.73 17.8795 136.99 18.5133 137.461 19.0008C137.933 19.472 138.55 19.8214 139.314 20.0489C140.094 20.2764 140.947 20.3902 141.873 20.3902C143.238 20.3902 144.319 20.1545 145.115 19.6833C145.911 19.1958 146.309 18.4808 146.309 17.5383C146.309 16.9695 146.106 16.5145 145.7 16.1733C145.31 15.8158 144.782 15.5233 144.116 15.2958C143.466 15.0683 142.751 14.8652 141.971 14.6864C141.191 14.4914 140.403 14.2883 139.606 14.077C138.826 13.8658 138.103 13.5977 137.437 13.2727C136.787 12.9477 136.259 12.5333 135.853 12.0295C135.463 11.5095 135.268 10.8514 135.268 10.0552C135.268 8.73891 135.771 7.66641 136.779 6.83766C137.803 6.00891 139.322 5.59453 141.337 5.59453C142.767 5.59453 143.945 5.81391 144.871 6.25266C145.798 6.67516 146.488 7.23578 146.943 7.93453C147.414 8.63328 147.674 9.38891 147.723 10.2014H145.846C145.749 9.38891 145.343 8.70641 144.628 8.15391C143.913 7.58516 142.816 7.30078 141.337 7.30078C140.427 7.30078 139.688 7.39016 139.119 7.56891C138.55 7.74766 138.111 7.98328 137.803 8.27578C137.51 8.55203 137.307 8.84453 137.193 9.15328C137.096 9.46203 137.047 9.75453 137.047 10.0308C137.047 10.567 137.242 11.0058 137.632 11.347C138.038 11.672 138.566 11.9483 139.216 12.1758C139.883 12.387 140.614 12.582 141.41 12.7608C142.206 12.9395 142.994 13.1427 143.774 13.3702C144.571 13.5814 145.294 13.8577 145.944 14.1989C146.61 14.5239 147.138 14.9464 147.528 15.4664C147.934 15.9864 148.138 16.6527 148.138 17.4652C148.138 18.9602 147.569 20.1139 146.431 20.9264C145.294 21.7227 143.734 22.1208 141.751 22.1208ZM155.724 22.1208C154.538 22.1208 153.498 21.8445 152.604 21.292C151.726 20.7233 151.044 19.9595 150.556 19.0008C150.069 18.042 149.825 16.9858 149.825 15.832C149.825 14.662 150.069 13.6058 150.556 12.6633C151.044 11.7045 151.726 10.9489 152.604 10.3964C153.498 9.82766 154.538 9.54328 155.724 9.54328C156.731 9.54328 157.593 9.73828 158.308 10.1283C159.039 10.5183 159.632 11.0464 160.087 11.7127V9.73828H161.915V21.9258H160.087V19.9758C159.632 20.6258 159.039 21.1458 158.308 21.5358C157.593 21.9258 156.731 22.1208 155.724 22.1208ZM155.968 20.4633C156.878 20.4633 157.641 20.252 158.259 19.8295C158.893 19.407 159.372 18.8464 159.697 18.1477C160.022 17.4327 160.184 16.6608 160.184 15.832C160.184 14.987 160.022 14.2152 159.697 13.5164C159.372 12.8177 158.893 12.257 158.259 11.8345C157.641 11.412 156.878 11.2008 155.968 11.2008C155.074 11.2008 154.302 11.412 153.652 11.8345C153.002 12.257 152.506 12.8177 152.165 13.5164C151.824 14.2152 151.653 14.987 151.653 15.832C151.653 16.6608 151.824 17.4327 152.165 18.1477C152.506 18.8464 153.002 19.407 153.652 19.8295C154.302 20.252 155.074 20.4633 155.968 20.4633ZM165.906 21.9258V11.347H163.81V9.73828H165.906V8.66578C165.906 7.33328 166.304 6.33391 167.1 5.66765C167.913 5.00141 169.018 4.66828 170.415 4.66828H170.562V6.39891H170.318C169.473 6.39891 168.831 6.59391 168.392 6.98391C167.953 7.35766 167.734 7.96703 167.734 8.81203V9.73828H170.562V11.347H167.734V21.9258H165.906ZM177.725 22.1208C176.49 22.1208 175.409 21.8445 174.483 21.292C173.557 20.7233 172.834 19.9595 172.314 19.0008C171.81 18.042 171.558 16.9858 171.558 15.832C171.558 14.662 171.802 13.6058 172.289 12.6633C172.777 11.7045 173.475 10.9489 174.385 10.3964C175.295 9.82766 176.368 9.54328 177.603 9.54328C178.854 9.54328 179.927 9.82766 180.82 10.3964C181.73 10.9489 182.429 11.7045 182.917 12.6633C183.404 13.6058 183.648 14.662 183.648 15.832V16.5633H173.435C173.532 17.2783 173.76 17.9364 174.117 18.5377C174.491 19.1227 174.987 19.5939 175.604 19.9514C176.222 20.2927 176.937 20.4633 177.749 20.4633C178.61 20.4633 179.334 20.2764 179.919 19.9027C180.504 19.5127 180.959 19.017 181.284 18.4158H183.282C182.86 19.5045 182.185 20.3983 181.259 21.097C180.349 21.7795 179.171 22.1208 177.725 22.1208ZM173.459 14.857H181.747C181.584 13.817 181.145 12.9477 180.43 12.2489C179.715 11.5502 178.773 11.2008 177.603 11.2008C176.433 11.2008 175.49 11.5502 174.775 12.2489C174.077 12.9477 173.638 13.817 173.459 14.857Z" fill="#0F1114"/>
</svg>
